<?xml version="1.0" encoding="UTF-8" standalone="no"?>
<svg
   xmlns:dc="http://purl.org/dc/elements/1.1/"
   xmlns:cc="http://creativecommons.org/ns#"
   xmlns:rdf="http://www.w3.org/1999/02/22-rdf-syntax-ns#"
   xmlns:svg="http://www.w3.org/2000/svg"
   xmlns="http://www.w3.org/2000/svg"
   xmlns:sodipodi="http://sodipodi.sourceforge.net/DTD/sodipodi-0.dtd"
   xmlns:inkscape="http://www.inkscape.org/namespaces/inkscape"
   version="1.1"
   width="1024"
   height="1024"
   id="svg2"
   inkscape:version="0.91 r13725"
   sodipodi:docname="icon.svg"
   inkscape:export-filename="/home/sanexto/FlutterProjects/QRScanner/qr_scanner/assets/launcher/icon.png"
   inkscape:export-xdpi="90"
   inkscape:export-ydpi="90">
  <metadata
     id="metadata17">
    <rdf:RDF>
      <cc:Work
         rdf:about="">
        <dc:format>image/svg+xml</dc:format>
        <dc:type
           rdf:resource="http://purl.org/dc/dcmitype/StillImage" />
        <dc:title>QR Code</dc:title>
      </cc:Work>
    </rdf:RDF>
  </metadata>
  <defs
     id="defs15" />
  <sodipodi:namedview
     pagecolor="#ffffff"
     bordercolor="#666666"
     borderopacity="1"
     objecttolerance="10"
     gridtolerance="10"
     guidetolerance="10"
     inkscape:pageopacity="0"
     inkscape:pageshadow="2"
     inkscape:window-width="1366"
     inkscape:window-height="710"
     id="namedview13"
     showgrid="false"
     inkscape:zoom="0.2616408"
     inkscape:cx="-103.02217"
     inkscape:cy="320.14111"
     inkscape:window-x="0"
     inkscape:window-y="0"
     inkscape:window-maximized="1"
     inkscape:current-layer="svg2" />
  <!-- Created with https://api.qrserver.com (QR Code API, see goQR.me/api for information) -->
  <title
     id="title4">QR Code</title>
  <desc
     id="desc6">Tenly</desc>
  <rect
     style="opacity:1;fill:#ffffff;fill-opacity:1;fill-rule:nonzero;stroke:none;stroke-opacity:1"
     id="rect3336"
     width="1024"
     height="1024"
     x="0"
     y="0" />
  <g
     id="elements"
     transform="matrix(3.030303,0,0,3.030303,-171.33333,-171.33333)">
    <path
       style="fill:#000000"
       d="m 110,110 11,0 0,11 -11,0 z m 11,0 11,0 0,11 -11,0 z m 11,0 11,0 0,11 -11,0 z m 11,0 11,0 0,11 -11,0 z m 11,0 11,0 0,11 -11,0 z m 11,0 11,0 0,11 -11,0 z m 11,0 11,0 0,11 -11,0 z m 44,0 11,0 0,11 -11,0 z m 11,0 11,0 0,11 -11,0 z m 11,0 11,0 0,11 -11,0 z m 22,0 11,0 0,11 -11,0 z m 11,0 11,0 0,11 -11,0 z m 11,0 11,0 0,11 -11,0 z m 11,0 11,0 0,11 -11,0 z m 11,0 11,0 0,11 -11,0 z m 11,0 11,0 0,11 -11,0 z m 11,0 11,0 0,11 -11,0 z m -220,11 11,0 0,11 -11,0 z m 66,0 11,0 0,11 -11,0 z m 22,0 11,0 0,11 -11,0 z m 11,0 11,0 0,11 -11,0 z m 11,0 11,0 0,11 -11,0 z m 22,0 11,0 0,11 -11,0 z m 22,0 11,0 0,11 -11,0 z m 66,0 11,0 0,11 -11,0 z m -220,11 11,0 0,11 -11,0 z m 22,0 11,0 0,11 -11,0 z m 11,0 11,0 0,11 -11,0 z m 11,0 11,0 0,11 -11,0 z m 22,0 11,0 0,11 -11,0 z m 44,0 11,0 0,11 -11,0 z m 11,0 11,0 0,11 -11,0 z m 11,0 11,0 0,11 -11,0 z m 22,0 11,0 0,11 -11,0 z m 22,0 11,0 0,11 -11,0 z m 11,0 11,0 0,11 -11,0 z m 11,0 11,0 0,11 -11,0 z m 22,0 11,0 0,11 -11,0 z m -220,11 11,0 0,11 -11,0 z m 22,0 11,0 0,11 -11,0 z m 11,0 11,0 0,11 -11,0 z m 11,0 11,0 0,11 -11,0 z m 22,0 11,0 0,11 -11,0 z m 22,0 11,0 0,11 -11,0 z m 11,0 11,0 0,11 -11,0 z m 33,0 11,0 0,11 -11,0 z m 22,0 11,0 0,11 -11,0 z m 22,0 11,0 0,11 -11,0 z m 11,0 11,0 0,11 -11,0 z m 11,0 11,0 0,11 -11,0 z m 22,0 11,0 0,11 -11,0 z m -220,11 11,0 0,11 -11,0 z m 22,0 11,0 0,11 -11,0 z m 11,0 11,0 0,11 -11,0 z m 11,0 11,0 0,11 -11,0 z m 22,0 11,0 0,11 -11,0 z m 33,0 11,0 0,11 -11,0 z m 33,0 11,0 0,11 -11,0 z m 22,0 11,0 0,11 -11,0 z m 22,0 11,0 0,11 -11,0 z m 11,0 11,0 0,11 -11,0 z m 11,0 11,0 0,11 -11,0 z m 22,0 11,0 0,11 -11,0 z m -220,11 11,0 0,11 -11,0 z m 66,0 11,0 0,11 -11,0 z m 22,0 11,0 0,11 -11,0 z m 33,0 11,0 0,11 -11,0 z m 33,0 11,0 0,11 -11,0 z m 66,0 11,0 0,11 -11,0 z m -220,11 11,0 0,11 -11,0 z m 11,0 11,0 0,11 -11,0 z m 11,0 11,0 0,11 -11,0 z m 11,0 11,0 0,11 -11,0 z m 11,0 11,0 0,11 -11,0 z m 11,0 11,0 0,11 -11,0 z m 11,0 11,0 0,11 -11,0 z m 22,0 11,0 0,11 -11,0 z m 22,0 11,0 0,11 -11,0 z m 22,0 11,0 0,11 -11,0 z m 22,0 11,0 0,11 -11,0 z m 11,0 11,0 0,11 -11,0 z m 11,0 11,0 0,11 -11,0 z m 11,0 11,0 0,11 -11,0 z m 11,0 11,0 0,11 -11,0 z m 11,0 11,0 0,11 -11,0 z m 11,0 11,0 0,11 -11,0 z m -121,11 11,0 0,11 -11,0 z m -99,11 11,0 0,11 -11,0 z m 11,0 11,0 0,11 -11,0 z m 11,0 11,0 0,11 -11,0 z m 11,0 11,0 0,11 -11,0 z m 11,0 11,0 0,11 -11,0 z m 22,0 11,0 0,11 -11,0 z m 11,0 11,0 0,11 -11,0 z m 11,0 11,0 0,11 -11,0 z m 33,0 11,0 0,11 -11,0 z m 22,0 11,0 0,11 -11,0 z m 22,0 11,0 0,11 -11,0 z m 22,0 11,0 0,11 -11,0 z m 22,0 11,0 0,11 -11,0 z m -154,11 11,0 0,11 -11,0 z m 22,0 11,0 0,11 -11,0 z m 11,0 11,0 0,11 -11,0 z m 11,0 11,0 0,11 -11,0 z m 22,0 11,0 0,11 -11,0 z m 11,0 11,0 0,11 -11,0 z m 11,0 11,0 0,11 -11,0 z m 11,0 11,0 0,11 -11,0 z m 33,0 11,0 0,11 -11,0 z m 11,0 11,0 0,11 -11,0 z m 22,0 11,0 0,11 -11,0 z m -220,11 11,0 0,11 -11,0 z m 11,0 11,0 0,11 -11,0 z m 11,0 11,0 0,11 -11,0 z m 11,0 11,0 0,11 -11,0 z m 11,0 11,0 0,11 -11,0 z m 11,0 11,0 0,11 -11,0 z m 11,0 11,0 0,11 -11,0 z m 11,0 11,0 0,11 -11,0 z m 55,0 11,0 0,11 -11,0 z m 22,0 11,0 0,11 -11,0 z m 11,0 11,0 0,11 -11,0 z m 22,0 11,0 0,11 -11,0 z m 11,0 11,0 0,11 -11,0 z m 11,0 11,0 0,11 -11,0 z m -209,11 11,0 0,11 -11,0 z m 11,0 11,0 0,11 -11,0 z m 33,0 11,0 0,11 -11,0 z m 33,0 11,0 0,11 -11,0 z m 33,0 11,0 0,11 -11,0 z m 11,0 11,0 0,11 -11,0 z m 11,0 11,0 0,11 -11,0 z m 11,0 11,0 0,11 -11,0 z m 11,0 11,0 0,11 -11,0 z m 33,0 11,0 0,11 -11,0 z m 11,0 11,0 0,11 -11,0 z m -187,11 11,0 0,11 -11,0 z m 44,0 11,0 0,11 -11,0 z m 11,0 11,0 0,11 -11,0 z m 11,0 11,0 0,11 -11,0 z m 11,0 11,0 0,11 -11,0 z m 11,0 11,0 0,11 -11,0 z m 33,0 11,0 0,11 -11,0 z m 33,0 11,0 0,11 -11,0 z m 44,0 11,0 0,11 -11,0 z m -121,11 11,0 0,11 -11,0 z m 11,0 11,0 0,11 -11,0 z m 33,0 11,0 0,11 -11,0 z m 33,0 11,0 0,11 -11,0 z m 22,0 11,0 0,11 -11,0 z m 22,0 11,0 0,11 -11,0 z m -209,11 11,0 0,11 -11,0 z m 11,0 11,0 0,11 -11,0 z m 11,0 11,0 0,11 -11,0 z m 11,0 11,0 0,11 -11,0 z m 11,0 11,0 0,11 -11,0 z m 11,0 11,0 0,11 -11,0 z m 11,0 11,0 0,11 -11,0 z m 22,0 11,0 0,11 -11,0 z m 22,0 11,0 0,11 -11,0 z m 11,0 11,0 0,11 -11,0 z m 22,0 11,0 0,11 -11,0 z m 33,0 11,0 0,11 -11,0 z m 33,0 11,0 0,11 -11,0 z m -209,11 11,0 0,11 -11,0 z m 66,0 11,0 0,11 -11,0 z m 44,0 11,0 0,11 -11,0 z m 55,0 11,0 0,11 -11,0 z m 11,0 11,0 0,11 -11,0 z m 11,0 11,0 0,11 -11,0 z m 11,0 11,0 0,11 -11,0 z m 11,0 11,0 0,11 -11,0 z m -209,11 11,0 0,11 -11,0 z m 22,0 11,0 0,11 -11,0 z m 11,0 11,0 0,11 -11,0 z m 11,0 11,0 0,11 -11,0 z m 22,0 11,0 0,11 -11,0 z m 22,0 11,0 0,11 -11,0 z m 33,0 11,0 0,11 -11,0 z m 22,0 11,0 0,11 -11,0 z m 33,0 11,0 0,11 -11,0 z m 33,0 11,0 0,11 -11,0 z m -209,11 11,0 0,11 -11,0 z m 22,0 11,0 0,11 -11,0 z m 11,0 11,0 0,11 -11,0 z m 11,0 11,0 0,11 -11,0 z m 22,0 11,0 0,11 -11,0 z m 22,0 11,0 0,11 -11,0 z m 11,0 11,0 0,11 -11,0 z m 22,0 11,0 0,11 -11,0 z m 11,0 11,0 0,11 -11,0 z m 11,0 11,0 0,11 -11,0 z m 11,0 11,0 0,11 -11,0 z m 11,0 11,0 0,11 -11,0 z m 22,0 11,0 0,11 -11,0 z m -187,11 11,0 0,11 -11,0 z m 22,0 11,0 0,11 -11,0 z m 11,0 11,0 0,11 -11,0 z m 11,0 11,0 0,11 -11,0 z m 22,0 11,0 0,11 -11,0 z m 22,0 11,0 0,11 -11,0 z m 22,0 11,0 0,11 -11,0 z m 22,0 11,0 0,11 -11,0 z m 22,0 11,0 0,11 -11,0 z m 11,0 11,0 0,11 -11,0 z m 33,0 11,0 0,11 -11,0 z m -198,11 11,0 0,11 -11,0 z m 66,0 11,0 0,11 -11,0 z m 22,0 11,0 0,11 -11,0 z m 11,0 11,0 0,11 -11,0 z m 11,0 11,0 0,11 -11,0 z m 11,0 11,0 0,11 -11,0 z m 11,0 11,0 0,11 -11,0 z m 11,0 11,0 0,11 -11,0 z m 11,0 11,0 0,11 -11,0 z m 33,0 11,0 0,11 -11,0 z m 11,0 11,0 0,11 -11,0 z m -198,11 11,0 0,11 -11,0 z m 11,0 11,0 0,11 -11,0 z m 11,0 11,0 0,11 -11,0 z m 11,0 11,0 0,11 -11,0 z m 11,0 11,0 0,11 -11,0 z m 11,0 11,0 0,11 -11,0 z m 11,0 11,0 0,11 -11,0 z m 22,0 11,0 0,11 -11,0 z m 44,0 11,0 0,11 -11,0 z m 33,0 11,0 0,11 -11,0 z m 11,0 11,0 0,11 -11,0 z m 11,0 11,0 0,11 -11,0 z m 22,0 11,0 0,11 -11,0 z"
       id="path11"
       inkscape:connector-curvature="0" />
  </g>
</svg>
